<svg width="1460" height="1700" viewBox="0 0 1460 1700" fill="none" xmlns="http://www.w3.org/2000/svg">
<rect width="1460" height="1700" fill="#5A10A5"/>
<path d="M635.1 941.3L657.6 939.5V812.6L636 807.2V791L677.4 785.6H678L684.6 791V796.4L683.7 819.8H684.6C686.6 816.4 690.2 812 695.4 806.6C700.6 801.2 707.3 796.3 715.5 791.9C723.7 787.3 732.6 785 742.2 785C746.2 785 749.5 785.5 752.1 786.5V820.1C750.7 819.1 748.4 818.2 745.2 817.4C742.2 816.4 738.8 815.9 735 815.9C718.4 815.9 703 821 688.8 831.2V939.2L726.9 941.6V956H635.1V941.3ZM796.502 959C791.302 959 786.802 957.2 783.002 953.6C779.202 950 777.302 945.4 777.302 939.8C777.302 933.6 779.502 928.4 783.902 924.2C788.502 920 793.802 917.9 799.802 917.9C806.002 917.9 810.702 919.8 813.902 923.6C817.302 927.2 819.002 931.7 819.002 937.1C819.002 943.7 816.802 949 812.402 953C808.002 957 802.702 959 796.502 959Z" fill="white"/>
</svg>
